<?xml version="1.0" encoding="UTF-8" standalone="no"?>
<!-- Created with Inkscape (http://www.inkscape.org/) -->

<svg
   width="20.000002"
   height="20.000002"
   id="svg2"
   version="1.1"
   xmlns="http://www.w3.org/2000/svg"
   xmlns:svg="http://www.w3.org/2000/svg"
   xmlns:rdf="http://www.w3.org/1999/02/22-rdf-syntax-ns#"
   xmlns:cc="http://creativecommons.org/ns#"
   xmlns:dc="http://purl.org/dc/elements/1.1/">
  <defs
     id="defs4">
    <filter
       id="filter16289"
       x="-0.144"
       width="1.288"
       y="-0.144"
       height="1.288"
       color-interpolation-filters="sRGB">
      <feGaussianBlur
         stdDeviation="0.9"
         id="feGaussianBlur16291" />
    </filter>
  </defs>
  <metadata
     id="metadata7">
    <rdf:RDF>
      <cc:Work
         rdf:about="">
        <dc:format>image/svg+xml</dc:format>
        <dc:type
           rdf:resource="http://purl.org/dc/dcmitype/StillImage" />
        <dc:title />
      </cc:Work>
    </rdf:RDF>
  </metadata>
  <g
     id="layer16"
     style="display:inline"
     transform="translate(-195,-160)">
    <g
       id="cursor_white_pointer"
       transform="translate(-1,-312.36218)"
       style="display:inline">
      <rect
         style="color:#000000;display:inline;overflow:visible;visibility:visible;fill:#878787;fill-opacity:0;fill-rule:nonzero;stroke:#000000;stroke-width:0;stroke-linecap:butt;stroke-linejoin:round;stroke-miterlimit:4;stroke-dasharray:none;stroke-dashoffset:0;stroke-opacity:0.392157;marker:none;filter:url(#filter14498-8);enable-background:accumulate"
         id="rect16293"
         width="20"
         height="20"
         x="196"
         y="472.36218" />
      <path
         style="opacity:0.6;fill:#000000;fill-opacity:1;stroke:none;filter:url(#filter16289)"
         d="m 198.5,483.86218 1,-2 h 2 v -6 l 1,-1 h 1 l 1,1 v 3 h 2 l 1,1 h 2 l 1,1 h 2 l 1,1 v 7 l -1,1 h -13 l -1,-1 z"
         id="path16140" />
      <path
         id="path16120"
         d="m 198.5,482.86218 1,-2 h 2 v -6 l 1,-1 h 1 l 1,1 v 3 h 2 l 1,1 h 2 l 1,1 h 2 l 1,1 v 7 l -1,1 h -13 l -1,-1 z"
         style="fill:#ffffff;fill-opacity:1;stroke:#000000;stroke-width:1px;stroke-linecap:butt;stroke-linejoin:round;stroke-opacity:1" />
      <path
         id="path16126"
         d="m 204,477.86218 1,4 v -4 z"
         style="fill:#000000;fill-opacity:1;stroke:none" />
      <path
         style="fill:#000000;fill-opacity:1;stroke:none"
         d="m 207,478.86218 1,4 v -4 z"
         id="path16128" />
      <path
         id="path16130"
         d="m 210,479.36218 1,4 v -4 z"
         style="fill:#000000;fill-opacity:1;stroke:none" />
      <path
         id="path16132"
         d="m 203,485.36218 h 2 v -1.5 l -2,0.5 z"
         style="fill:#999999;fill-opacity:1;stroke:none" />
      <path
         style="fill:#999999;fill-opacity:1;stroke:none"
         d="m 206,485.36218 h 2 v -1.5 l -2,0.5 z"
         id="path16134" />
      <path
         id="path16136"
         d="m 209,485.36218 h 2 v -1.5 l -2,0.5 z"
         style="fill:#999999;fill-opacity:1;stroke:none" />
      <path
         style="fill:#000000;fill-opacity:1;stroke:none"
         d="m 201,480.86218 v 3 l 1,1.5 v -4.5 z"
         id="path16138" />
    </g>
  </g>
</svg>
